<svg id="cap_share" xmlns="http://www.w3.org/2000/svg" width="67" height="27.94" viewBox="0 0 67 27.94">
  <defs>
    <style>
      .cls-1, .cls-2 {
        fill: #fff;
      }

      .cls-1 {
        fill-rule: evenodd;
      }
    </style>
  </defs>
  <path id="SHARE" class="cls-1" d="M178.352,2028.78a2.335,2.335,0,0,1-1.875-.67,3.244,3.244,0,0,1-.574-2.14h-3.457a5.63,5.63,0,0,0,.767,2.98,5.052,5.052,0,0,0,2.127,1.95,6.679,6.679,0,0,0,3.012.68,5.639,5.639,0,0,0,3.855-1.25,4.424,4.424,0,0,0,1.418-3.49,4.9,4.9,0,0,0-1.131-3.33,8.477,8.477,0,0,0-3.627-2.22,6.518,6.518,0,0,1-1.992-1.18,1.764,1.764,0,0,1-.562-1.27,1.984,1.984,0,0,1,.5-1.43,1.826,1.826,0,0,1,1.406-.54,1.783,1.783,0,0,1,1.471.63,2.826,2.826,0,0,1,.509,1.82h3.434a5.6,5.6,0,0,0-.662-2.74,4.556,4.556,0,0,0-1.893-1.87,5.831,5.831,0,0,0-2.8-.66,5.769,5.769,0,0,0-3.884,1.3,4.351,4.351,0,0,0-1.53,3.47,4.6,4.6,0,0,0,1.125,3.09,8.958,8.958,0,0,0,3.692,2.27,6.387,6.387,0,0,1,1.939,1.11,2.145,2.145,0,0,1,.533,1.58,1.644,1.644,0,0,1-1.8,1.91h0Zm19.634-14.5h-3.434v6.9h-5.086v-6.9h-3.445v17.06h3.445v-7.3h5.086v7.3h3.434v-17.06Zm12.124,17.06h3.679l-5.367-17.06H205.27l-5.332,17.06h3.644l0.915-3.49h4.7Zm-3.27-12.44,1.594,6.08h-3.187Zm16.6,12.44h3.7v-0.16l-2.988-6.98a4.976,4.976,0,0,0,2.472-4.76,5.028,5.028,0,0,0-1.412-3.82,5.6,5.6,0,0,0-4-1.34h-5.5v17.06h3.445v-6.23h1.711Zm-4.278-14.19h2.016c1.336,0,2,.86,2,2.57a2.942,2.942,0,0,1-.516,1.83,1.806,1.806,0,0,1-1.546.69h-1.958v-5.09ZM238,2021.18h-5.367v-4.03h6.328v-2.87h-9.773v17.06h9.8v-2.85h-6.351v-4.53H238v-2.78Z" transform="translate(-172 -2014.06)"/>
  <rect id="長方形_4" data-name="長方形 4" class="cls-2" y="25.94" width="67" height="2"/>
</svg>
