<svg xmlns="http://www.w3.org/2000/svg" width="61.218" height="49.18" viewBox="0 0 61.218 49.18">
  <defs>
    <style>
      .cls-1 {
        fill: #fff;
        fill-rule: evenodd;
      }
    </style>
  </defs>
  <path id="sns_tw" class="cls-1" d="M362.4,2008.72h0m-18.829-5.82a12.427,12.427,0,0,0-12.231,15.25,35.768,35.768,0,0,1-25.88-12.98,12.355,12.355,0,0,0,3.886,16.59,12.69,12.69,0,0,1-5.687-1.56c0,0.05,0,.11,0,0.16a12.461,12.461,0,0,0,10.072,12.18,12.87,12.87,0,0,1-3.308.43,12.278,12.278,0,0,1-2.363-.22,12.549,12.549,0,0,0,11.73,8.63,25.374,25.374,0,0,1-15.594,5.31,26.89,26.89,0,0,1-3-.17,35.853,35.853,0,0,0,19.247,5.58c23.095,0,35.724-18.93,35.724-35.34,0-.54-0.012-1.07-0.036-1.61a25.357,25.357,0,0,0,6.265-6.43,25.234,25.234,0,0,1-7.211,1.96,12.494,12.494,0,0,0,5.521-6.87,25.215,25.215,0,0,1-7.974,3.01,12.615,12.615,0,0,0-9.165-3.92" transform="translate(-301.188 -2002.91)"/>
</svg>
